<mxfile host="Electron" agent="Mozilla/5.0 (Windows NT 10.0; Win64; x64) AppleWebKit/537.36 (KHTML, like Gecko) draw.io/24.7.17 Chrome/128.0.6613.36 Electron/32.0.1 Safari/537.36" version="24.7.17">
  <diagram name="Wazuh System Architecture" id="GqIgp-yXIEBMqQhjBUKs">
    <mxGraphModel dx="1050" dy="629" grid="1" gridSize="10" guides="1" tooltips="1" connect="1" arrows="1" fold="1" page="1" pageScale="1" pageWidth="850" pageHeight="1100" math="0" shadow="0">
      <root>
        <mxCell id="0" />
        <mxCell id="1" parent="0" />
        <mxCell id="yhadi-ImTybpv4RtCKZn-6" style="endArrow=block;strokeColor=#1A1A1A;strokeWidth=2;" parent="1" edge="1">
          <mxGeometry relative="1" as="geometry">
            <mxPoint x="220" y="300" as="sourcePoint" />
            <mxPoint x="352.15474530775305" y="210" as="targetPoint" />
          </mxGeometry>
        </mxCell>
        <mxCell id="yhadi-ImTybpv4RtCKZn-7" style="endArrow=block;strokeColor=#1A1A1A;strokeWidth=2;" parent="1" edge="1">
          <mxGeometry relative="1" as="geometry">
            <mxPoint x="354.65714285714284" y="300" as="sourcePoint" />
            <mxPoint x="398.6285714285714" y="210" as="targetPoint" />
          </mxGeometry>
        </mxCell>
        <mxCell id="yhadi-ImTybpv4RtCKZn-8" style="endArrow=block;strokeColor=#1A1A1A;strokeWidth=2;" parent="1" edge="1">
          <mxGeometry relative="1" as="geometry">
            <mxPoint x="503.79999999999995" y="300" as="sourcePoint" />
            <mxPoint x="455.20000000000005" y="210" as="targetPoint" />
          </mxGeometry>
        </mxCell>
        <mxCell id="yhadi-ImTybpv4RtCKZn-9" style="endArrow=block;strokeColor=#1A1A1A;strokeWidth=2;exitX=0.122;exitY=-0.045;exitDx=0;exitDy=0;exitPerimeter=0;" parent="1" edge="1">
          <mxGeometry relative="1" as="geometry">
            <mxPoint x="627.6128000000001" y="304.79200000000003" as="sourcePoint" />
            <mxPoint x="499.71093249305704" y="210" as="targetPoint" />
          </mxGeometry>
        </mxCell>
        <mxCell id="H575st0t-o5zTrzhqhew-6" value="&lt;font style=&quot;font-size: 14px;&quot;&gt;&lt;i&gt;Agent 1&lt;/i&gt;&lt;/font&gt;" style="text;html=1;align=center;verticalAlign=middle;whiteSpace=wrap;rounded=0;strokeWidth=1;" parent="1" vertex="1">
          <mxGeometry x="170" y="380" width="60" height="30" as="geometry" />
        </mxCell>
        <mxCell id="H575st0t-o5zTrzhqhew-7" value="&lt;font style=&quot;font-size: 14px;&quot;&gt;&lt;i&gt;Agent 4&lt;/i&gt;&lt;/font&gt;" style="text;html=1;align=center;verticalAlign=middle;whiteSpace=wrap;rounded=0;strokeWidth=1;" parent="1" vertex="1">
          <mxGeometry x="622.4" y="380" width="60" height="30" as="geometry" />
        </mxCell>
        <mxCell id="H575st0t-o5zTrzhqhew-8" value="&lt;font style=&quot;font-size: 14px;&quot;&gt;&lt;i&gt;Agent 3&lt;/i&gt;&lt;/font&gt;" style="text;html=1;align=center;verticalAlign=middle;whiteSpace=wrap;rounded=0;strokeWidth=1;" parent="1" vertex="1">
          <mxGeometry x="470" y="380" width="60" height="30" as="geometry" />
        </mxCell>
        <mxCell id="H575st0t-o5zTrzhqhew-9" value="&lt;font style=&quot;font-size: 14px;&quot;&gt;&lt;i&gt;Agent 2&lt;/i&gt;&lt;/font&gt;" style="text;html=1;align=center;verticalAlign=middle;whiteSpace=wrap;rounded=0;strokeWidth=1;" parent="1" vertex="1">
          <mxGeometry x="312.4" y="380" width="60" height="30" as="geometry" />
        </mxCell>
        <mxCell id="H575st0t-o5zTrzhqhew-10" value="&lt;font style=&quot;font-size: 16px;&quot;&gt;&lt;b&gt;FIREWALL SERVER&lt;/b&gt;&lt;/font&gt;" style="text;html=1;align=center;verticalAlign=middle;whiteSpace=wrap;rounded=0;strokeWidth=1;" parent="1" vertex="1">
          <mxGeometry x="395" y="170" width="60" height="30" as="geometry" />
        </mxCell>
        <mxCell id="HeXhi7sMGGQsJsawoZON-1" value="&lt;i style=&quot;&quot;&gt;&lt;b&gt;( Ubuntu )&lt;/b&gt;&lt;/i&gt;" style="text;html=1;align=center;verticalAlign=middle;whiteSpace=wrap;rounded=0;strokeWidth=1;" parent="1" vertex="1">
          <mxGeometry x="466.2" y="160" width="70" height="40" as="geometry" />
        </mxCell>
        <mxCell id="HeXhi7sMGGQsJsawoZON-2" value="&lt;i style=&quot;&quot;&gt;&lt;b&gt;( Windows&lt;/b&gt;&lt;/i&gt;&lt;i style=&quot;background-color: initial;&quot;&gt;&lt;b&gt;&amp;nbsp;)&lt;/b&gt;&lt;/i&gt;" style="text;html=1;align=center;verticalAlign=middle;whiteSpace=wrap;rounded=0;strokeWidth=1;" parent="1" vertex="1">
          <mxGeometry x="160" y="400" width="70" height="40" as="geometry" />
        </mxCell>
        <mxCell id="HeXhi7sMGGQsJsawoZON-3" value="&lt;i style=&quot;&quot;&gt;&lt;b&gt;( Windows&lt;/b&gt;&lt;/i&gt;&lt;i style=&quot;background-color: initial;&quot;&gt;&lt;b&gt;&amp;nbsp;)&lt;/b&gt;&lt;/i&gt;" style="text;html=1;align=center;verticalAlign=middle;whiteSpace=wrap;rounded=0;strokeWidth=1;" parent="1" vertex="1">
          <mxGeometry x="616.2" y="400" width="70" height="40" as="geometry" />
        </mxCell>
        <mxCell id="HeXhi7sMGGQsJsawoZON-4" value="&lt;i style=&quot;&quot;&gt;&lt;b&gt;( Windows&lt;/b&gt;&lt;/i&gt;&lt;i style=&quot;background-color: initial;&quot;&gt;&lt;b&gt;&amp;nbsp;)&lt;/b&gt;&lt;/i&gt;" style="text;html=1;align=center;verticalAlign=middle;whiteSpace=wrap;rounded=0;strokeWidth=1;" parent="1" vertex="1">
          <mxGeometry x="466.2" y="400" width="70" height="40" as="geometry" />
        </mxCell>
        <mxCell id="HeXhi7sMGGQsJsawoZON-5" value="&lt;i style=&quot;&quot;&gt;&lt;b&gt;( Windows&lt;/b&gt;&lt;/i&gt;&lt;i style=&quot;background-color: initial;&quot;&gt;&lt;b&gt;&amp;nbsp;)&lt;/b&gt;&lt;/i&gt;" style="text;html=1;align=center;verticalAlign=middle;whiteSpace=wrap;rounded=0;strokeWidth=1;" parent="1" vertex="1">
          <mxGeometry x="307.4" y="400" width="70" height="40" as="geometry" />
        </mxCell>
        <mxCell id="YnQOjMw-iiOPbB5TPjkV-6" value="" style="image;aspect=fixed;html=1;points=[];align=center;fontSize=12;image=img/lib/azure2/networking/Azure_Firewall_Manager.svg;" vertex="1" parent="1">
          <mxGeometry x="367" y="60" width="116.67" height="100" as="geometry" />
        </mxCell>
        <mxCell id="YnQOjMw-iiOPbB5TPjkV-7" value="" style="verticalLabelPosition=bottom;sketch=0;html=1;fillColor=#A153A0;strokeColor=#ffffff;verticalAlign=top;align=center;points=[[0,0.5,0],[0.125,0.25,0],[0.25,0,0],[0.5,0,0],[0.75,0,0],[0.875,0.25,0],[1,0.5,0],[0.875,0.75,0],[0.75,1,0],[0.5,1,0],[0.125,0.75,0]];pointerEvents=1;shape=mxgraph.cisco_safe.compositeIcon;bgIcon=mxgraph.cisco_safe.design.blank_device;resIcon=mxgraph.cisco_safe.design.client_firewall;" vertex="1" parent="1">
          <mxGeometry x="155" y="307.77" width="90" height="72.23" as="geometry" />
        </mxCell>
        <mxCell id="YnQOjMw-iiOPbB5TPjkV-9" value="" style="verticalLabelPosition=bottom;sketch=0;html=1;fillColor=#A153A0;strokeColor=#ffffff;verticalAlign=top;align=center;points=[[0,0.5,0],[0.125,0.25,0],[0.25,0,0],[0.5,0,0],[0.75,0,0],[0.875,0.25,0],[1,0.5,0],[0.875,0.75,0],[0.75,1,0],[0.5,1,0],[0.125,0.75,0]];pointerEvents=1;shape=mxgraph.cisco_safe.compositeIcon;bgIcon=mxgraph.cisco_safe.design.blank_device;resIcon=mxgraph.cisco_safe.design.client_firewall;" vertex="1" parent="1">
          <mxGeometry x="606.2" y="307.77" width="90" height="72.23" as="geometry" />
        </mxCell>
        <mxCell id="YnQOjMw-iiOPbB5TPjkV-10" value="" style="verticalLabelPosition=bottom;sketch=0;html=1;fillColor=#A153A0;strokeColor=#ffffff;verticalAlign=top;align=center;points=[[0,0.5,0],[0.125,0.25,0],[0.25,0,0],[0.5,0,0],[0.75,0,0],[0.875,0.25,0],[1,0.5,0],[0.875,0.75,0],[0.75,1,0],[0.5,1,0],[0.125,0.75,0]];pointerEvents=1;shape=mxgraph.cisco_safe.compositeIcon;bgIcon=mxgraph.cisco_safe.design.blank_device;resIcon=mxgraph.cisco_safe.design.client_firewall;" vertex="1" parent="1">
          <mxGeometry x="455" y="307.77" width="90" height="72.23" as="geometry" />
        </mxCell>
        <mxCell id="YnQOjMw-iiOPbB5TPjkV-11" value="" style="verticalLabelPosition=bottom;sketch=0;html=1;fillColor=#A153A0;strokeColor=#ffffff;verticalAlign=top;align=center;points=[[0,0.5,0],[0.125,0.25,0],[0.25,0,0],[0.5,0,0],[0.75,0,0],[0.875,0.25,0],[1,0.5,0],[0.875,0.75,0],[0.75,1,0],[0.5,1,0],[0.125,0.75,0]];pointerEvents=1;shape=mxgraph.cisco_safe.compositeIcon;bgIcon=mxgraph.cisco_safe.design.blank_device;resIcon=mxgraph.cisco_safe.design.client_firewall;" vertex="1" parent="1">
          <mxGeometry x="297.4" y="307.77" width="90" height="72.23" as="geometry" />
        </mxCell>
      </root>
    </mxGraphModel>
  </diagram>
</mxfile>
